# xmcd
#
# Track frame offsets: 
#        182
#        6985
#        26850
#        49232
#        53135
#        69247
#        74617
#        93647
#        116205
#        119237
#        139895
#        157742
#        183205
#        199572
#        219735
#
# Disc length: 3190 seconds
#
# Revision: 1
# Processed by: cddbd v1.4PL0 Copyright (c) Steve Scherf et al.
# Submitted via: ExactAudioCopy v0.95a3
#
DISCID=e50c740f
DTITLE=DFC - The Whole World's Rotten
DYEAR=1997
DGENRE=Rap
TTITLE0=Rotten 1 (skit)
TTITLE1=The Whole World's Rotten
TTITLE2=Caught In The Game
TTITLE3=Rotten 2 (skit)
TTITLE4=Ain't Nobody
TTITLE5=Rotten 3 (skit)
TTITLE6=Listen (Five Minutes)
TTITLE7=Wastin' Time
TTITLE8=Rotten 4 (skit)
TTITLE9=Blaugh
TTITLE10=Smokin'
TTITLE11=G Shit
TTITLE12=Stack Them Bodies
TTITLE13=These Flint Streets
TTITLE14=Nobody Trust In I [CD bonus track)
EXTD=
EXTT0=
EXTT1=
EXTT2=
EXTT3=
EXTT4=
EXTT5=
EXTT6=
EXTT7=
EXTT8=
EXTT9=
EXTT10=
EXTT11=
EXTT12=
EXTT13=
EXTT14=
PLAYORDER=
